<svg xmlns="http://www.w3.org/2000/svg" xmlns:xlink="http://www.w3.org/1999/xlink" xmlns:serif="http://www.serif.com/" viewBox="0 0 100 125" version="1.1" xml:space="preserve" style="" x="0px" y="0px" fill-rule="evenodd" clip-rule="evenodd" stroke-linejoin="round" stroke-miterlimit="2"><g transform="matrix(1,0,0,1,0,-450)"><g serif:id="dog training point" transform="matrix(1,0,0,1,-450,450)"><rect x="450" y="0" width="100" height="100" style="" fill="none"/><g transform="matrix(1,0,0,1,451,-1)"><path d="M17,86L14,86L14,82L25,62L17,82L17,86ZM73,26L80,26L83,32L92,32C92,36.046 92,38.381 89,42L79,42L67,55L51,86L48,86L55,61L28,56L12,81L12,86L9,86L9,79L16,60L16,46L10,43L11,41L20,42L56,41L67,33L71,19L73,19L73,26ZM65,62L68,55L75,64L64,73L62,71L69,64L65,62ZM74,19L75,19L76,25L74,25L74,19Z"/></g></g></g><text x="0" y="115" fill="#000000" font-size="5px" font-weight="bold" font-family="'Helvetica Neue', Helvetica, Arial-Unicode, Arial, Sans-serif">Created by Bruno Castro</text><text x="0" y="120" fill="#000000" font-size="5px" font-weight="bold" font-family="'Helvetica Neue', Helvetica, Arial-Unicode, Arial, Sans-serif">from the Noun Project</text></svg>