<svg xmlns="http://www.w3.org/2000/svg" xmlns:xlink="http://www.w3.org/1999/xlink" version="1.1" x="0px" y="0px" viewBox="0 0 100 125" enable-background="new 0 0 100 100" xml:space="preserve"><path d="M27.274,30.555c-3.19-0.638-5.265-3.778-4.621-7.004c0.649-3.231,3.771-5.322,6.96-4.683  c3.198,0.641,5.263,3.77,4.617,7.001C33.585,29.093,30.47,31.195,27.274,30.555"/><polygon points="37.724,20.546 37.051,19.32 43.781,15.624 44.454,16.85 37.724,20.546 "/><polygon points="48.571,23.333 40.417,23.333 40.417,21.934 48.571,21.934 48.571,23.333 "/><polygon points="46.487,29.56 39.613,27.27 40.055,25.943 46.929,28.234 46.487,29.56 "/><path d="M78.663,61.006l-17.289,0.023l-3.871-2.093c-0.688-0.433-1.565-0.166-1.955,0.589c-0.391,0.756-0.151,1.712,0.537,2.144  l5.247,2.935l-6.286,16.483c-0.534,1.401,0.331,3.132,1.732,3.666c0.317,0.121,0.645,0.18,0.967,0.18  c1.095,0,2.124-0.666,2.538-1.749l3.664-9.934l14.002,0.111l-2.912,7.567c-0.539,1.398,0.159,2.971,1.559,3.51  c0.321,0.122,0.65,0.182,0.976,0.182c1.091,0,2.119-0.662,2.533-1.74l6.548-17.008L78.663,61.006z"/><path d="M93.981,54.244l-0.957-2.426H78.351l3.631,8.338l3.191-0.99l1.075-5.355l2.045,0.409l-1.297,6.485l-3.085,1.058l5.019,3.057  l8.946-3.226l1.287-6.314L93.981,54.244z M91.701,57.241c-0.145,0.719-0.848,1.187-1.57,1.043c-0.725-0.146-1.191-0.848-1.047-1.569  c0.145-0.724,0.849-1.193,1.571-1.048C91.379,55.811,91.846,56.518,91.701,57.241z"/><path d="M79.632,59.449L55.312,45.1c0.554-0.415,0.969-1.022,1.117-1.759c0.316-1.581-0.792-2.918-2.25-3.646L35.462,28.205  c-1.541,3.136-5.015,4.983-8.572,4.271c-2.459-0.491-4.412-2.105-5.458-4.207H3.839c-1.678,0-3.039,1.361-3.039,3.039  c0,1.678,1.36,3.039,3.039,3.039h22.932l-0.018,0.072l13.883,20.013l0.057,26.613c0.031,0.26,0.203,4.012,4.318,4.012  c2.758,0,4.599-2.493,4.407-4.164c0,0,0.065-31.846,0.002-31.837c-0.193-2.435-0.871-3.685-1.808-5.196l-2.258-2.619l30.829,18.209  H79.632z"/><text x="0" y="115" fill="#000000" font-size="5px" font-weight="bold" font-family="'Helvetica Neue', Helvetica, Arial-Unicode, Arial, Sans-serif">Created by Luis Prado</text><text x="0" y="120" fill="#000000" font-size="5px" font-weight="bold" font-family="'Helvetica Neue', Helvetica, Arial-Unicode, Arial, Sans-serif">from the Noun Project</text></svg>