<?xml version="1.0" encoding="utf-8"?>
<!-- Generator: Adobe Illustrator 27.1.0, SVG Export Plug-In . SVG Version: 6.00 Build 0)  -->
<svg version="1.1" id="Layer_1" xmlns="http://www.w3.org/2000/svg" xmlns:xlink="http://www.w3.org/1999/xlink" x="0px" y="0px"
	 viewBox="0 0 32 32" style="enable-background:new 0 0 32 32;" xml:space="preserve">
<g>
	<path d="M9.7,17.6c0.8,0,1.5-0.4,1.5-1v-0.7c0-0.6-0.7-1-1.5-1s-1.5,0.4-1.5,1v0.7C8.2,17.2,8.9,17.6,9.7,17.6z"/>
	<path d="M20.8,15.9v0.7c0,0.6,0.7,1,1.5,1s1.5-0.4,1.5-1l0,0v-0.7c0-0.6-0.7-1-1.5-1C21.4,14.9,20.8,15.4,20.8,15.9z"/>
	<path d="M12.1,14.4c1.4,0,2.5-0.7,2.5-1.7c0-0.5-0.3-1-0.9-1.3c-1.8-1-4.5,0.1-4.1,1.6C9.9,13.8,10.9,14.4,12.1,14.4z M12.1,11.9
		c0.7,0,1.2,0.4,1.2,0.8c0,0.4-0.5,0.8-1.2,0.8c-0.6,0-1.2-0.3-1.2-0.8C10.9,12.3,11.4,11.9,12.1,11.9
		C12.1,11.9,12.1,11.9,12.1,11.9L12.1,11.9z"/>
	<path d="M19.9,14.4c1.4,0,2.5-0.7,2.5-1.7c0-0.5-0.3-1-0.9-1.3c-1.8-1-4.5,0.1-4.1,1.6C17.6,13.8,18.7,14.4,19.9,14.4z M19.9,11.9
		c0.7,0,1.2,0.4,1.2,0.8s-0.5,0.8-1.2,0.8c-0.6,0-1.2-0.3-1.2-0.8C18.7,12.3,19.2,11.9,19.9,11.9C19.9,11.9,19.9,11.9,19.9,11.9
		L19.9,11.9z"/>
	<path d="M28.9,11.1v-2c0-1.1-0.8-4.9-4.2-8.4c-0.6-0.7-2-0.9-3-0.4c-0.3,0.1-0.5,0.3-0.6,0.4c-2.6,2.6-3.6,5.4-4,7h-2.3
		c-0.4-1.6-1.4-4.4-4-7c-0.7-0.7-2-0.9-3-0.4C7.6,0.4,7.4,0.5,7.3,0.7C3.8,4.2,3,8,3,9.1v2C2.8,11.7,0.7,17.8,0,24c0,0,0,0.1,0,0.1
		C0.2,25,0.8,26,1.4,26.8c1.5,1.9,3.9,3.4,6.9,4.2c2.1,0.6,4.5,0.9,6.8,0.9c2.4,0.1,4.9-0.1,7.2-0.6c3.2-0.7,6-2.1,7.8-4
		c0.9-1,1.6-2.1,1.9-3.2c0,0,0,0,0-0.1c0,0,0-0.1,0-0.1C31.3,17.8,29.2,11.7,28.9,11.1z M4.4,11.3c0,0,0-0.1,0-0.1v-2
		c0,0,0.2-4.1,4-8C8.6,0.9,9.1,0.8,9.5,1c0.1,0,0.2,0.1,0.3,0.2c2.4,2.4,3.3,5,3.7,6.5c-1.3,0.1-2.6,0.3-3.8,0.7
		C9.4,8.4,9.3,8.7,9.4,8.9c0.2,0.2,0.6,0.3,0.9,0.2l0,0c1.3-0.4,2.7-0.6,4.2-0.6h3c1.5,0,2.9,0.2,4.2,0.6c0.3,0.1,0.7,0,0.9-0.2
		c0.2-0.2,0-0.5-0.3-0.6c-1.2-0.4-2.5-0.6-3.8-0.7c0.4-1.5,1.4-4.1,3.7-6.5c0.1-0.2,0.4-0.2,0.7-0.2c0.3,0,0.6,0.1,0.7,0.3
		c3.8,3.9,4,7.9,4,8v2c0,0,0,0.1,0,0.1c0.1,0.2,1.9,5.3,2.8,11c-1.3-0.1-2.6-0.5-3.5-1.1l-0.7-0.4c-1.4-0.9-3.3-1.4-5.2-1.4h-2.5
		c-0.2-0.3-0.6-0.4-1-0.4h-3c-0.4,0-0.8,0.2-1,0.4H11c-2,0-3.9,0.5-5.2,1.4l-0.7,0.4c-0.9,0.6-2.2,1-3.5,1.1
		C2.5,16.5,4.3,11.3,4.4,11.3L4.4,11.3z M18,23.4v2.3c0,0.7-0.9,1.3-2,1.3s-2-0.6-2-1.3v-2.3c0.8-0.1,1.5-0.4,2-0.8
		C16.5,23,17.2,23.3,18,23.4z M28.4,27.5c-1.8,1.6-4.4,2.7-7.3,3.2c-3.2,0.5-6.5,0.5-9.7,0.1c-2.3-0.4-4.5-1-6.3-2.1
		c-1.2-0.8-2.2-1.7-2.9-2.7c-0.4-0.6-0.7-1.2-0.8-1.8c0,0,0-0.1,0-0.1c0-0.3,0.1-0.6,0.1-0.9c1.7-0.1,3.4-0.6,4.6-1.4l0.7-0.4
		c1.1-0.8,2.7-1.2,4.3-1.2h2.7l1.4,1.2l0,0c0.1,0,0.1,0.1,0.2,0.1c-0.4,1.2-2.8,1.4-3.7,0.4c-0.1-0.1-0.2-0.2-0.2-0.4
		c0-0.1,0-0.3-0.1-0.4c-0.1-0.2-0.5-0.4-0.9-0.3c0,0-0.1,0-0.1,0c-0.7,0.3-0.2,1.1,0.1,1.5c0.5,0.5,1.3,0.9,2.2,1v2.3
		c0,1.2,1.5,2.2,3.3,2.2s3.3-1,3.3-2.2v-2.3c1.2-0.2,2.2-0.8,2.5-1.6c0.1-0.2,0.2-0.6,0-0.8c-0.2-0.2-0.6-0.3-0.9-0.2
		c0,0-0.1,0-0.1,0c-0.3,0.2-0.2,0.5-0.3,0.7c-0.3,0.7-1.5,1.1-2.5,0.8c-0.7-0.1-1.2-0.5-1.3-1c0.1,0,0.1-0.1,0.2-0.1l1.4-1.2H21
		c1.6,0,3.2,0.4,4.3,1.2l0.7,0.4c1.2,0.8,2.9,1.3,4.6,1.4c0,0.3,0.1,0.6,0.1,0.9C30.6,24.3,30.2,25.9,28.4,27.5z"/>
</g>
</svg>
